<svg xmlns="http://www.w3.org/2000/svg" viewBox="0 0 150 150">
<!-- SVG created with Arrow, by QuiverAI (https://quiver.ai) -->
  <style type="text/css">.cls-0 {fill:#080E10;}
.cls-1 {fill:#151719;}
.cls-2 {fill:#F0F1EF;}</style>
  <path class="cls-0" d="m116.5 1.3h-83c-17.7 0-29.7 12.4-29.7 30.1v86.6c0 18 10.6 30.6 28.9 30.6l83.8 0.1c17.9 0 30-10.6 30-29.8v-87.5c0.1-16.4-11.8-30.1-30-30.1z"/>
  <path class="cls-1" d="m116.5 1.3"/>
  <path class="cls-2" d="m89.8 59.7-0.1-29.3c0-1 0.4-1.4 1.3-1.4h27.5c1.1 0 1.6 0.5 1.6 1.5v27.6c0 1.3-0.3 1.7-1.6 1.7h-28.7v28.5c0 1.2-0.4 1.7-1.6 1.7h-28l0.1 29.4c0 1-0.3 1.5-1.4 1.5l-27.9 0.1c-0.9 0-1.5-0.5-1.5-1.3v-28.2c0-1.1 0.5-1.6 1.6-1.6h29l-0.1-28.8c0-0.9 0.4-1.5 1.3-1.5l28.5 0.1z"/>
  <path class="cls-2" d="m90 59.7"/>
  <path class="cls-2" d="m89.8 59.6"/>
  <path class="cls-2" d="m90 59.7"/>
  <path class="cls-2" d="m89.8 59.7"/>
</svg>